<svg xmlns="http://www.w3.org/2000/svg" viewBox="0 0 480 150" role="img" aria-label="Sham Cash Barcode">
  <rect width="480" height="150" fill="#ffffff"/>
  <g fill="#111827">
    <rect x="20" y="18" width="4" height="114"/>
    <rect x="28" y="18" width="2" height="114"/>
    <rect x="36" y="18" width="6" height="114"/>
    <rect x="48" y="18" width="3" height="114"/>
    <rect x="57" y="18" width="8" height="114"/>
    <rect x="69" y="18" width="2" height="114"/>
    <rect x="75" y="18" width="6" height="114"/>
    <rect x="87" y="18" width="4" height="114"/>
    <rect x="97" y="18" width="2" height="114"/>
    <rect x="103" y="18" width="10" height="114"/>
    <rect x="117" y="18" width="3" height="114"/>
    <rect x="126" y="18" width="5" height="114"/>
    <rect x="136" y="18" width="2" height="114"/>
    <rect x="144" y="18" width="9" height="114"/>
    <rect x="158" y="18" width="4" height="114"/>
    <rect x="166" y="18" width="2" height="114"/>
    <rect x="174" y="18" width="8" height="114"/>
    <rect x="187" y="18" width="2" height="114"/>
    <rect x="193" y="18" width="6" height="114"/>
    <rect x="204" y="18" width="3" height="114"/>
    <rect x="212" y="18" width="7" height="114"/>
    <rect x="223" y="18" width="2" height="114"/>
    <rect x="230" y="18" width="11" height="114"/>
    <rect x="246" y="18" width="3" height="114"/>
    <rect x="255" y="18" width="4" height="114"/>
    <rect x="263" y="18" width="2" height="114"/>
    <rect x="270" y="18" width="9" height="114"/>
    <rect x="284" y="18" width="3" height="114"/>
    <rect x="292" y="18" width="7" height="114"/>
    <rect x="303" y="18" width="2" height="114"/>
    <rect x="310" y="18" width="8" height="114"/>
    <rect x="322" y="18" width="4" height="114"/>
    <rect x="331" y="18" width="2" height="114"/>
    <rect x="338" y="18" width="10" height="114"/>
    <rect x="352" y="18" width="3" height="114"/>
    <rect x="360" y="18" width="5" height="114"/>
    <rect x="369" y="18" width="2" height="114"/>
    <rect x="376" y="18" width="9" height="114"/>
    <rect x="390" y="18" width="3" height="114"/>
    <rect x="398" y="18" width="7" height="114"/>
    <rect x="409" y="18" width="2" height="114"/>
    <rect x="416" y="18" width="8" height="114"/>
    <rect x="429" y="18" width="3" height="114"/>
    <rect x="438" y="18" width="5" height="114"/>
    <rect x="448" y="18" width="4" height="114"/>
  </g>
  <text x="240" y="145" text-anchor="middle" font-family="Arial, sans-serif" font-size="14" fill="#0f172a">SHAM CASH</text>
</svg>
